<svg width="654" height="115" viewBox="0 0 654 115" fill="none" xmlns="http://www.w3.org/2000/svg">
<g filter="url(#filter0_dd_40_202)">
<path d="M24 32C24 29.1997 24 27.7996 24.545 26.73C25.0243 25.7892 25.7892 25.0243 26.73 24.545C27.7996 24 29.1997 24 32 24H622C624.8 24 626.2 24 627.27 24.545C628.211 25.0243 628.976 25.7892 629.455 26.73C630 27.7996 630 29.1997 630 32V83C630 85.8003 630 87.2004 629.455 88.27C628.976 89.2108 628.211 89.9757 627.27 90.455C626.2 91 624.8 91 622 91H32C29.1997 91 27.7996 91 26.73 90.455C25.7892 89.9757 25.0243 89.2108 24.545 88.27C24 87.2004 24 85.8003 24 83V32Z" fill="#FF3737"/>
</g>
<defs>
<filter id="filter0_dd_40_202" x="0" y="0" width="654" height="115" filterUnits="userSpaceOnUse" color-interpolation-filters="sRGB">
<feFlood flood-opacity="0" result="BackgroundImageFix"/>
<feColorMatrix in="SourceAlpha" type="matrix" values="0 0 0 0 0 0 0 0 0 0 0 0 0 0 0 0 0 0 127 0" result="hardAlpha"/>
<feOffset dx="8" dy="8"/>
<feGaussianBlur stdDeviation="8"/>
<feComposite in2="hardAlpha" operator="out"/>
<feColorMatrix type="matrix" values="0 0 0 0 0.604167 0 0 0 0 0.604167 0 0 0 0 0.604167 0 0 0 0.25 0"/>
<feBlend mode="normal" in2="BackgroundImageFix" result="effect1_dropShadow_40_202"/>
<feColorMatrix in="SourceAlpha" type="matrix" values="0 0 0 0 0 0 0 0 0 0 0 0 0 0 0 0 0 0 127 0" result="hardAlpha"/>
<feOffset dx="-8" dy="-8"/>
<feGaussianBlur stdDeviation="8"/>
<feComposite in2="hardAlpha" operator="out"/>
<feColorMatrix type="matrix" values="0 0 0 0 1 0 0 0 0 1 0 0 0 0 1 0 0 0 0.25 0"/>
<feBlend mode="normal" in2="effect1_dropShadow_40_202" result="effect2_dropShadow_40_202"/>
<feBlend mode="normal" in="SourceGraphic" in2="effect2_dropShadow_40_202" result="shape"/>
</filter>
</defs>
</svg>
