<svg width="72" height="85" viewBox="0 0 72 85" fill="none" xmlns="http://www.w3.org/2000/svg">
<g filter="url(#filter0_d_39_10)">
<path d="M36.6069 35.1214C38.5258 35.1214 40.1801 33.772 40.5657 31.8923V31.8923C41.08 29.3861 39.1654 27.0388 36.6069 27.0388H35.8477C33.2738 27.0388 31.1872 24.9523 31.1872 22.3783V21.7961C31.1872 19.5844 32.6338 17.4272 37.2804 17.4272H38.3409C40.3618 17.4272 42 15.789 42 13.7681V13.7681C42 11.9263 40.6309 10.3736 38.7949 10.2271C37.2954 10.1075 35.4427 10 33.6274 10C25.0796 10 19.4978 13.8719 19.4978 20.8786V22.29C19.4978 24.9127 17.3716 27.0388 14.7489 27.0388H14.0413C11.8093 27.0388 10 28.8482 10 31.0801V31.0801C10 33.312 11.8093 35.1214 14.0413 35.1214H14.7489C17.3716 35.1214 19.4978 37.2475 19.4978 39.8702V50.2143C19.4978 52.7501 21.3971 54.9109 23.932 54.9806C24.4 54.9935 24.8702 55 25.3425 55C25.8148 55 26.285 54.9935 26.753 54.9806C29.2879 54.9109 31.1872 52.7501 31.1872 50.2143V39.9218C31.1872 37.2706 33.3365 35.1214 35.9877 35.1214H36.6069Z" fill="white"/>
</g>
<defs>
<filter id="filter0_d_39_10" x="0" y="0" width="72" height="85" filterUnits="userSpaceOnUse" color-interpolation-filters="sRGB">
<feFlood flood-opacity="0" result="BackgroundImageFix"/>
<feColorMatrix in="SourceAlpha" type="matrix" values="0 0 0 0 0 0 0 0 0 0 0 0 0 0 0 0 0 0 127 0" result="hardAlpha"/>
<feOffset dx="10" dy="10"/>
<feGaussianBlur stdDeviation="10"/>
<feComposite in2="hardAlpha" operator="out"/>
<feColorMatrix type="matrix" values="0 0 0 0 0.134056 0 0 0 0 0.315238 0 0 0 0 0.957611 0 0 0 0.25 0"/>
<feBlend mode="normal" in2="BackgroundImageFix" result="effect1_dropShadow_39_10"/>
<feBlend mode="normal" in="SourceGraphic" in2="effect1_dropShadow_39_10" result="shape"/>
</filter>
</defs>
</svg>
